%TF.GenerationSoftware,Flux,Pcbnew,7.0.11-7.0.11~ubuntu20.04.1*%
%TF.CreationDate,2024-04-08T19:48:30+00:00*%
%TF.ProjectId,input,696e7075-742e-46b6-9963-61645f706362,rev?*%
%TF.SameCoordinates,Original*%
%TF.FileFunction,Copper,L1,Top*%
%TF.FilePolarity,Positive*%
%FSLAX46Y46*%
G04 Gerber Fmt 4.6, Leading zero omitted, Abs format (unit mm)*
G04 Filename: construction*
G04 Build it with Flux! Visit our site at: https://www.flux.ai (PCBNEW 7.0.11-7.0.11~ubuntu20.04.1) date 2024-04-08 19:48:30*
%MOMM*%
%LPD*%
G01*
G04 APERTURE LIST*
G04 Aperture macros list*
%AMFreePoly0*
4,1,5,0.350000,-0.300000,-0.350000,-0.300000,-0.350000,0.300000,0.350000,0.300000,0.350000,-0.300000,0.350000,-0.300000,$1*%
%AMFreePoly1*
4,1,5,0.350000,-0.500000,-0.350000,-0.500000,-0.350000,0.500000,0.350000,0.500000,0.350000,-0.500000,0.350000,-0.500000,$1*%
%AMFreePoly2*
4,1,5,1.000000,-1.000000,-1.000000,-1.000000,-1.000000,1.000000,1.000000,1.000000,1.000000,-1.000000,1.000000,-1.000000,$1*%
%AMFreePoly3*
4,1,5,0.900000,-0.400000,-0.900000,-0.400000,-0.900000,0.400000,0.900000,0.400000,0.900000,-0.400000,0.900000,-0.400000,$1*%
%AMFreePoly4*
4,1,101,0.333457,0.474848,0.338093,0.474391,0.342690,0.473632,0.347228,0.472574,0.351686,0.471221,0.356047,0.469580,0.360291,0.467657,0.364400,0.465461,0.368357,0.463001,0.372144,0.460287,0.375745,0.457331,0.379146,0.454146,0.382331,0.450745,0.385287,0.447144,0.388001,0.443357,0.390461,0.439400,0.392657,0.435291,0.394580,0.431047,0.396221,0.426686,0.397574,0.422228,
0.398632,0.417690,0.399391,0.413093,0.399848,0.408457,0.400000,0.403800,0.400000,-0.403800,0.399848,-0.408457,0.399391,-0.413093,0.398632,-0.417690,0.397574,-0.422228,0.396221,-0.426686,0.394580,-0.431047,0.392657,-0.435291,0.390461,-0.439400,0.388001,-0.443357,0.385287,-0.447144,0.382331,-0.450745,0.379146,-0.454146,0.375745,-0.457331,0.372144,-0.460287,0.368357,-0.463001,
0.364400,-0.465461,0.360291,-0.467657,0.356047,-0.469580,0.351686,-0.471221,0.347228,-0.472574,0.342690,-0.473632,0.338093,-0.474391,0.333457,-0.474848,0.328800,-0.475000,-0.328800,-0.475000,-0.333457,-0.474848,-0.338093,-0.474391,-0.342690,-0.473632,-0.347228,-0.472574,-0.351686,-0.471221,-0.356047,-0.469580,-0.360291,-0.467657,-0.364400,-0.465461,-0.368357,-0.463001,-0.372144,-0.460287,
-0.375745,-0.457331,-0.379146,-0.454146,-0.382331,-0.450745,-0.385287,-0.447144,-0.388001,-0.443357,-0.390461,-0.439400,-0.392657,-0.435291,-0.394580,-0.431047,-0.396221,-0.426686,-0.397574,-0.422228,-0.398632,-0.417690,-0.399391,-0.413093,-0.399848,-0.408457,-0.400000,-0.403800,-0.400000,0.403800,-0.399848,0.408457,-0.399391,0.413093,-0.398632,0.417690,-0.397574,0.422228,-0.396221,0.426686,
-0.394580,0.431047,-0.392657,0.435291,-0.390461,0.439400,-0.388001,0.443357,-0.385287,0.447144,-0.382331,0.450745,-0.379146,0.454146,-0.375745,0.457331,-0.372144,0.460287,-0.368357,0.463001,-0.364400,0.465461,-0.360291,0.467657,-0.356047,0.469580,-0.351686,0.471221,-0.347228,0.472574,-0.342690,0.473632,-0.338093,0.474391,-0.333457,0.474848,-0.328800,0.475000,0.328800,0.475000,
0.333457,0.474848,0.333457,0.474848,$1*%
%AMFreePoly5*
4,1,5,0.400000,-0.200000,-0.400000,-0.200000,-0.400000,0.200000,0.400000,0.200000,0.400000,-0.200000,0.400000,-0.200000,$1*%
%AMFreePoly6*
4,1,5,0.400000,-0.400000,-0.400000,-0.400000,-0.400000,0.400000,0.400000,0.400000,0.400000,-0.400000,0.400000,-0.400000,$1*%
%AMFreePoly7*
4,1,5,0.200000,-0.400000,-0.200000,-0.400000,-0.200000,0.400000,0.200000,0.400000,0.200000,-0.400000,0.200000,-0.400000,$1*%
%AMFreePoly8*
4,1,5,0.600000,-0.600000,-0.600000,-0.600000,-0.600000,0.600000,0.600000,0.600000,0.600000,-0.600000,0.600000,-0.600000,$1*%
%AMFreePoly9*
4,1,14,0.603000,0.604000,0.605000,0.600000,0.605000,-0.600000,0.604000,-0.603000,0.600000,-0.605000,-0.600000,-0.605000,-0.603000,-0.604000,-0.605000,-0.600000,-0.605000,0.000000,-0.604000,0.004000,-0.004000,0.604000,0.000000,0.605000,0.600000,0.605000,0.603000,0.604000,0.603000,0.604000,$1*%
%AMFreePoly10*
4,1,101,0.383457,0.474848,0.388093,0.474391,0.392690,0.473632,0.397228,0.472574,0.401686,0.471221,0.406047,0.469580,0.410291,0.467657,0.414400,0.465461,0.418357,0.463001,0.422144,0.460287,0.425745,0.457331,0.429146,0.454146,0.432331,0.450745,0.435287,0.447144,0.438001,0.443357,0.440461,0.439400,0.442657,0.435291,0.444580,0.431047,0.446221,0.426686,0.447574,0.422228,
0.448632,0.417690,0.449391,0.413093,0.449848,0.408457,0.450000,0.403800,0.450000,-0.403800,0.449848,-0.408457,0.449391,-0.413093,0.448632,-0.417690,0.447574,-0.422228,0.446221,-0.426686,0.444580,-0.431047,0.442657,-0.435291,0.440461,-0.439400,0.438001,-0.443357,0.435287,-0.447144,0.432331,-0.450745,0.429146,-0.454146,0.425745,-0.457331,0.422144,-0.460287,0.418357,-0.463001,
0.414400,-0.465461,0.410291,-0.467657,0.406047,-0.469580,0.401686,-0.471221,0.397228,-0.472574,0.392690,-0.473632,0.388093,-0.474391,0.383457,-0.474848,0.378800,-0.475000,-0.378800,-0.475000,-0.383457,-0.474848,-0.388093,-0.474391,-0.392690,-0.473632,-0.397228,-0.472574,-0.401686,-0.471221,-0.406047,-0.469580,-0.410291,-0.467657,-0.414400,-0.465461,-0.418357,-0.463001,-0.422144,-0.460287,
-0.425745,-0.457331,-0.429146,-0.454146,-0.432331,-0.450745,-0.435287,-0.447144,-0.438001,-0.443357,-0.440461,-0.439400,-0.442657,-0.435291,-0.444580,-0.431047,-0.446221,-0.426686,-0.447574,-0.422228,-0.448632,-0.417690,-0.449391,-0.413093,-0.449848,-0.408457,-0.450000,-0.403800,-0.450000,0.403800,-0.449848,0.408457,-0.449391,0.413093,-0.448632,0.417690,-0.447574,0.422228,-0.446221,0.426686,
-0.444580,0.431047,-0.442657,0.435291,-0.440461,0.439400,-0.438001,0.443357,-0.435287,0.447144,-0.432331,0.450745,-0.429146,0.454146,-0.425745,0.457331,-0.422144,0.460287,-0.418357,0.463001,-0.414400,0.465461,-0.410291,0.467657,-0.406047,0.469580,-0.401686,0.471221,-0.397228,0.472574,-0.392690,0.473632,-0.388093,0.474391,-0.383457,0.474848,-0.378800,0.475000,0.378800,0.475000,
0.383457,0.474848,0.383457,0.474848,$1*%
%AMFreePoly11*
4,1,5,0.500000,-0.350000,-0.500000,-0.350000,-0.500000,0.350000,0.500000,0.350000,0.500000,-0.350000,0.500000,-0.350000,$1*%
%AMFreePoly12*
4,1,5,0.300000,-0.725000,-0.300000,-0.725000,-0.300000,0.725000,0.300000,0.725000,0.300000,-0.725000,0.300000,-0.725000,$1*%
%AMFreePoly13*
4,1,5,0.150000,-0.725000,-0.150000,-0.725000,-0.150000,0.725000,0.150000,0.725000,0.150000,-0.725000,0.150000,-0.725000,$1*%
%AMFreePoly14*
4,1,5,0.325000,-0.425000,-0.325000,-0.425000,-0.325000,0.425000,0.325000,0.425000,0.325000,-0.425000,0.325000,-0.425000,$1*%
%AMFreePoly15*
4,1,5,0.975000,-0.300000,-0.975000,-0.300000,-0.975000,0.300000,0.975000,0.300000,0.975000,-0.300000,0.975000,-0.300000,$1*%
%AMFreePoly16*
4,1,5,0.450000,-0.600000,-0.450000,-0.600000,-0.450000,0.600000,0.450000,0.600000,0.450000,-0.600000,0.450000,-0.600000,$1*%
%AMFreePoly17*
4,1,5,0.501650,-0.254000,-0.501650,-0.254000,-0.501650,0.254000,0.501650,0.254000,0.501650,-0.254000,0.501650,-0.254000,$1*%
%AMFreePoly18*
4,1,101,0.398409,0.724767,0.405488,0.724070,0.412506,0.722911,0.419434,0.721296,0.426240,0.719231,0.432898,0.716726,0.439377,0.713790,0.445650,0.710437,0.451690,0.706681,0.457472,0.702538,0.462971,0.698025,0.468163,0.693163,0.473025,0.687971,0.477538,0.682472,0.481681,0.676690,0.485437,0.670650,0.488790,0.664377,0.491726,0.657898,0.494231,0.651240,0.496296,0.644434,
0.497911,0.637506,0.499070,0.630488,0.499767,0.623409,0.500000,0.616300,0.500000,-0.616300,0.499767,-0.623409,0.499070,-0.630488,0.497911,-0.637506,0.496296,-0.644434,0.494231,-0.651240,0.491726,-0.657898,0.488790,-0.664377,0.485437,-0.670650,0.481681,-0.676690,0.477538,-0.682472,0.473025,-0.687971,0.468163,-0.693163,0.462971,-0.698025,0.457472,-0.702538,0.451690,-0.706681,
0.445650,-0.710437,0.439377,-0.713790,0.432898,-0.716726,0.426240,-0.719231,0.419434,-0.721296,0.412506,-0.722911,0.405488,-0.724070,0.398409,-0.724767,0.391300,-0.725000,-0.391300,-0.725000,-0.398409,-0.724767,-0.405488,-0.724070,-0.412506,-0.722911,-0.419434,-0.721296,-0.426240,-0.719231,-0.432898,-0.716726,-0.439377,-0.713790,-0.445650,-0.710437,-0.451690,-0.706681,-0.457472,-0.702538,
-0.462971,-0.698025,-0.468163,-0.693163,-0.473025,-0.687971,-0.477538,-0.682472,-0.481681,-0.676690,-0.485437,-0.670650,-0.488790,-0.664377,-0.491726,-0.657898,-0.494231,-0.651240,-0.496296,-0.644434,-0.497911,-0.637506,-0.499070,-0.630488,-0.499767,-0.623409,-0.500000,-0.616300,-0.500000,0.616300,-0.499767,0.623409,-0.499070,0.630488,-0.497911,0.637506,-0.496296,0.644434,-0.494231,0.651240,
-0.491726,0.657898,-0.488790,0.664377,-0.485437,0.670650,-0.481681,0.676690,-0.477538,0.682472,-0.473025,0.687971,-0.468163,0.693163,-0.462971,0.698025,-0.457472,0.702538,-0.451690,0.706681,-0.445650,0.710437,-0.439377,0.713790,-0.432898,0.716726,-0.426240,0.719231,-0.419434,0.721296,-0.412506,0.722911,-0.405488,0.724070,-0.398409,0.724767,-0.391300,0.725000,0.391300,0.725000,
0.398409,0.724767,0.398409,0.724767,$1*%
%AMFreePoly19*
4,1,5,0.550000,-0.550000,-0.550000,-0.550000,-0.550000,0.550000,0.550000,0.550000,0.550000,-0.550000,0.550000,-0.550000,$1*%
%AMFreePoly20*
4,1,129,0.022069,0.299187,0.036723,0.297744,0.051289,0.295583,0.065730,0.292711,0.080014,0.289133,0.094105,0.284858,0.107969,0.279898,0.121572,0.274263,0.134883,0.267967,0.147869,0.261026,0.160499,0.253456,0.172742,0.245275,0.184569,0.236504,0.195952,0.227163,0.206862,0.217274,0.217274,0.206862,0.227163,0.195952,0.236504,0.184569,0.245275,0.172742,0.253456,0.160499,
0.261026,0.147869,0.267967,0.134883,0.274263,0.121572,0.279898,0.107969,0.284858,0.094105,0.289133,0.080014,0.292711,0.065730,0.295583,0.051289,0.297744,0.036723,0.299187,0.022069,0.299910,0.007362,0.299910,-0.007362,0.299187,-0.022069,0.297744,-0.036723,0.295583,-0.051289,0.292711,-0.065730,0.289133,-0.080014,0.284858,-0.094105,0.279898,-0.107969,0.274263,-0.121572,
0.267967,-0.134883,0.261026,-0.147869,0.253456,-0.160499,0.245275,-0.172742,0.236504,-0.184569,0.227163,-0.195952,0.217274,-0.206862,0.206862,-0.217274,0.195952,-0.227163,0.184569,-0.236504,0.172742,-0.245275,0.160499,-0.253456,0.147869,-0.261026,0.134883,-0.267967,0.121572,-0.274263,0.107969,-0.279898,0.094105,-0.284858,0.080014,-0.289133,0.065730,-0.292711,0.051289,-0.295583,
0.036723,-0.297744,0.022069,-0.299187,0.007362,-0.299910,-0.007362,-0.299910,-0.022069,-0.299187,-0.036723,-0.297744,-0.051289,-0.295583,-0.065730,-0.292711,-0.080014,-0.289133,-0.094105,-0.284858,-0.107969,-0.279898,-0.121572,-0.274263,-0.134883,-0.267967,-0.147869,-0.261026,-0.160499,-0.253456,-0.172742,-0.245275,-0.184569,-0.236504,-0.195952,-0.227163,-0.206862,-0.217274,-0.217274,-0.206862,
-0.227163,-0.195952,-0.236504,-0.184569,-0.245275,-0.172742,-0.253456,-0.160499,-0.261026,-0.147869,-0.267967,-0.134883,-0.274263,-0.121572,-0.279898,-0.107969,-0.284858,-0.094105,-0.289133,-0.080014,-0.292711,-0.065730,-0.295583,-0.051289,-0.297744,-0.036723,-0.299187,-0.022069,-0.299910,-0.007362,-0.299910,0.007362,-0.299187,0.022069,-0.297744,0.036723,-0.295583,0.051289,-0.292711,0.065730,
-0.289133,0.080014,-0.284858,0.094105,-0.279898,0.107969,-0.274263,0.121572,-0.267967,0.134883,-0.261026,0.147869,-0.253456,0.160499,-0.245275,0.172742,-0.236504,0.184569,-0.227163,0.195952,-0.217274,0.206862,-0.206862,0.217274,-0.195952,0.227163,-0.184569,0.236504,-0.172742,0.245275,-0.160499,0.253456,-0.147869,0.261026,-0.134883,0.267967,-0.121572,0.274263,-0.107969,0.279898,
-0.094105,0.284858,-0.080014,0.289133,-0.065730,0.292711,-0.051289,0.295583,-0.036723,0.297744,-0.022069,0.299187,-0.007362,0.299910,0.007362,0.299910,0.022069,0.299187,0.022069,0.299187,$1*%
%AMFreePoly21*
4,1,5,0.825500,-0.825500,-0.825500,-0.825500,-0.825500,0.825500,0.825500,0.825500,0.825500,-0.825500,0.825500,-0.825500,$1*%
G04 Aperture macros list end*
%TA.AperFunction,SMDPad,CuDef*%
%ADD10FreePoly0,0.000000*%
%TD*%
%TA.AperFunction,SMDPad,CuDef*%
%ADD11FreePoly1,0.000000*%
%TD*%
%TA.AperFunction,ComponentPad*%
%ADD12C,2.000000*%
%TD*%
%TA.AperFunction,ComponentPad*%
%ADD13FreePoly2,0.000000*%
%TD*%
%TA.AperFunction,ComponentPad*%
%ADD14C,1.530000*%
%TD*%
%TA.AperFunction,SMDPad,CuDef*%
%ADD15FreePoly3,180.000000*%
%TD*%
%TA.AperFunction,SMDPad,CuDef*%
%ADD16C,0.150000*%
%TD*%
%TA.AperFunction,SMDPad,CuDef*%
%ADD17FreePoly4,90.000000*%
%TD*%
%TA.AperFunction,SMDPad,CuDef*%
%ADD18FreePoly4,270.000000*%
%TD*%
%TA.AperFunction,SMDPad,CuDef*%
%ADD19FreePoly5,0.000000*%
%TD*%
%TA.AperFunction,SMDPad,CuDef*%
%ADD20FreePoly6,0.000000*%
%TD*%
%TA.AperFunction,SMDPad,CuDef*%
%ADD21FreePoly7,0.000000*%
%TD*%
%TA.AperFunction,SMDPad,CuDef*%
%ADD22FreePoly8,0.000000*%
%TD*%
%TA.AperFunction,SMDPad,CuDef*%
%ADD23FreePoly9,0.000000*%
%TD*%
%TA.AperFunction,SMDPad,CuDef*%
%ADD24FreePoly10,0.000000*%
%TD*%
%TA.AperFunction,SMDPad,CuDef*%
%ADD25FreePoly11,0.000000*%
%TD*%
%TA.AperFunction,SMDPad,CuDef*%
%ADD26FreePoly12,180.000000*%
%TD*%
%TA.AperFunction,SMDPad,CuDef*%
%ADD27FreePoly13,180.000000*%
%TD*%
%TA.AperFunction,ComponentPad*%
%ADD28O,1.050000X2.100000*%
%TD*%
%TA.AperFunction,ComponentPad*%
%ADD29C,0.700000*%
%TD*%
%TA.AperFunction,SMDPad,CuDef*%
%ADD30FreePoly10,180.000000*%
%TD*%
%TA.AperFunction,SMDPad,CuDef*%
%ADD31FreePoly14,180.000000*%
%TD*%
%TA.AperFunction,SMDPad,CuDef*%
%ADD32FreePoly4,180.000000*%
%TD*%
%TA.AperFunction,SMDPad,CuDef*%
%ADD33FreePoly15,90.000000*%
%TD*%
%TA.AperFunction,SMDPad,CuDef*%
%ADD34FreePoly10,90.000000*%
%TD*%
%TA.AperFunction,SMDPad,CuDef*%
%ADD35FreePoly4,0.000000*%
%TD*%
%TA.AperFunction,SMDPad,CuDef*%
%ADD36FreePoly16,90.000000*%
%TD*%
%TA.AperFunction,SMDPad,CuDef*%
%ADD37FreePoly17,0.000000*%
%TD*%
%TA.AperFunction,SMDPad,CuDef*%
%ADD38FreePoly18,0.000000*%
%TD*%
%TA.AperFunction,ComponentPad*%
%ADD39C,1.100000*%
%TD*%
%TA.AperFunction,ComponentPad*%
%ADD40FreePoly19,0.000000*%
%TD*%
%TA.AperFunction,ComponentPad*%
%ADD41FreePoly20,0.000000*%
%TD*%
%TA.AperFunction,ComponentPad*%
%ADD42C,4.000000*%
%TD*%
%TA.AperFunction,ComponentPad*%
%ADD43C,1.651000*%
%TD*%
%TA.AperFunction,ComponentPad*%
%ADD44FreePoly21,0.000000*%
%TD*%
%TA.AperFunction,ComponentPad*%
%ADD45C,1.600000*%
%TD*%
%TA.AperFunction,Conductor*%
%ADD46C,0.254000*%
%TD*%
%TA.AperFunction,Conductor*%
%ADD47C,0.500000*%
%TD*%
%TA.AperFunction,Conductor*%
%ADD48C,0.300000*%
%TD*%
G04 APERTURE END LIST*
D10*
%TO.P,,16098f26-99ea-44cd-bbb9-9657a37ede83__069ce77e-5d90-4328-ba0f-6211cb0e24d3*%
%TO.N,N/C*%
X31022900Y-14356800D03*
%TO.P,,16098f26-99ea-44cd-bbb9-9657a37ede83__455a4385-d993-40d1-841d-b28df02afe61*%
X29022900Y-14356800D03*
D11*
%TO.P,,16098f26-99ea-44cd-bbb9-9657a37ede83__4815aeb0-5b09-4646-9d3b-f7ad5879686c*%
X29022900Y-12561800D03*
D10*
%TO.P,,16098f26-99ea-44cd-bbb9-9657a37ede83__ac51beff-a572-4d67-8516-912e49362f78*%
X31022900Y-12356800D03*
D12*
%TO.P,,2684df83-8935-4121-ac40-83fb56e09c55__1681c945-72b0-7f93-9b1c-d8b98d81837b*%
X-17507400Y28438700D03*
%TO.P,,2684df83-8935-4121-ac40-83fb56e09c55__17fab3a6-b3b6-8ec4-2264-054d9d50592e*%
X-17507400Y-2041300D03*
%TO.P,,2684df83-8935-4121-ac40-83fb56e09c55__2020778a-1c05-828e-63d2-95975d722ede*%
X7892600Y5578700D03*
%TO.P,,2684df83-8935-4121-ac40-83fb56e09c55__21710e97-dc1e-f15b-eda8-a2464dd03780*%
X7892600Y3038700D03*
%TO.P,,2684df83-8935-4121-ac40-83fb56e09c55__27f9481c-3bcb-2a90-564a-5c7ded790d28*%
X7892600Y-2041300D03*
%TO.P,,2684df83-8935-4121-ac40-83fb56e09c55__328c094f-8b70-cc20-8ddc-ef78a24b48db*%
X-17507400Y5578700D03*
%TO.P,,2684df83-8935-4121-ac40-83fb56e09c55__332a967e-81ea-16ac-e60a-cc2e17d8dde3*%
X-17507400Y-4581300D03*
%TO.P,,2684df83-8935-4121-ac40-83fb56e09c55__374c4f85-6c34-b15b-3ed5-1f7ff7b3a299*%
X7892600Y-4581300D03*
%TO.P,,2684df83-8935-4121-ac40-83fb56e09c55__381f7a56-7398-9b44-1763-21f06fc513c0*%
X7892600Y23358700D03*
%TO.P,,2684df83-8935-4121-ac40-83fb56e09c55__45d4cad7-f425-cede-92f6-a2a1401b4e1f*%
X7892600Y13198700D03*
%TO.P,,2684df83-8935-4121-ac40-83fb56e09c55__5107874f-f7f4-8575-a692-b229e930cc41*%
X7892600Y25898700D03*
%TO.P,,2684df83-8935-4121-ac40-83fb56e09c55__51e6bff1-4260-f25f-d7f8-571ef873bd30*%
X-17507400Y18278700D03*
%TO.P,,2684df83-8935-4121-ac40-83fb56e09c55__57debd97-c2d0-e2c3-162d-79ee89d24b9a*%
X7892600Y498700D03*
%TO.P,,2684df83-8935-4121-ac40-83fb56e09c55__6a9fca37-2f67-b1da-a2f9-9eb7d3abe056*%
X7892600Y18278700D03*
%TO.P,,2684df83-8935-4121-ac40-83fb56e09c55__701db258-9fa3-cad7-30a5-5a6561dbb355*%
X7892600Y10658700D03*
%TO.P,,2684df83-8935-4121-ac40-83fb56e09c55__738b38ea-6f61-98d8-8d47-fccc3061142e*%
X-17507400Y10658700D03*
%TO.P,,2684df83-8935-4121-ac40-83fb56e09c55__8579b95e-c318-74ec-0dac-91f72d1d9f20*%
X-17507400Y13198700D03*
%TO.P,,2684df83-8935-4121-ac40-83fb56e09c55__a2cd3a6f-ce48-58eb-583f-fb343e76ae66*%
X7892600Y30978700D03*
%TO.P,,2684df83-8935-4121-ac40-83fb56e09c55__b2d017ea-0e67-e825-dc38-04406fc5657a*%
X-17507400Y23358700D03*
%TO.P,,2684df83-8935-4121-ac40-83fb56e09c55__b7edc7c1-e4d5-3a1f-8f07-e96cb847c8be*%
X-17507400Y25898700D03*
%TO.P,,2684df83-8935-4121-ac40-83fb56e09c55__bc942f36-3c55-2d88-23bc-028ca8ac1682*%
X-17507400Y15738700D03*
%TO.P,,2684df83-8935-4121-ac40-83fb56e09c55__c3f5efb9-41a8-9046-3793-763f72153749*%
X7892600Y15738700D03*
%TO.P,,2684df83-8935-4121-ac40-83fb56e09c55__c465326f-802c-b678-7b15-6a657aaeb571*%
X-17507400Y498700D03*
%TO.P,,2684df83-8935-4121-ac40-83fb56e09c55__ccd9ec73-aaba-48a7-f9e4-03e3414f5c21*%
X-17507400Y8118700D03*
%TO.P,,2684df83-8935-4121-ac40-83fb56e09c55__dab8ca2f-b8aa-51aa-2f8c-906afb0e15d5*%
X7892600Y20818700D03*
%TO.P,,2684df83-8935-4121-ac40-83fb56e09c55__dd2b9ed5-3bcc-4b1c-db1d-9b3410ec84ed*%
X7892600Y8118700D03*
%TO.P,,2684df83-8935-4121-ac40-83fb56e09c55__dfb48abf-4438-73d2-436d-6fc5f0f5fd0a*%
X-17507400Y3038700D03*
%TO.P,,2684df83-8935-4121-ac40-83fb56e09c55__e1f08ead-9b05-038d-2d79-9f349821d470*%
X7892600Y28438700D03*
D13*
%TO.P,,2684df83-8935-4121-ac40-83fb56e09c55__e9093935-73c7-5956-880e-38eab8ed4176*%
X-17507400Y30978700D03*
D12*
%TO.P,,2684df83-8935-4121-ac40-83fb56e09c55__f064026a-d470-09ad-56c0-a49e70aa95d1*%
X-17507400Y20818700D03*
D14*
%TO.P,,285f62f9-6749-48b1-ab7e-5e6487e413bd__29397c00-5b80-4142-8ce1-bf66c46add7f*%
X6934200Y6325100D03*
%TO.P,,285f62f9-6749-48b1-ab7e-5e6487e413bd__7d219b0a-4660-48da-bb7b-171fd9156a97*%
X12014200Y6325100D03*
%TO.P,,285f62f9-6749-48b1-ab7e-5e6487e413bd__b3f09223-462a-4226-a020-811beed3165f*%
X14554200Y6325100D03*
%TO.P,,285f62f9-6749-48b1-ab7e-5e6487e413bd__dfffc97b-e6df-4be9-b882-c0ec7df4936a*%
X9474200Y6325100D03*
D12*
%TO.P,,2ca73054-f3d6-4d48-a63a-64d3685a329d__08043e8b-dea1-e7f7-0389-85c5983ee149*%
X-7722500Y9464600D03*
%TO.P,,2ca73054-f3d6-4d48-a63a-64d3685a329d__19df8eec-1a5b-cfce-9197-c3eba028d4f3*%
X-15832500Y6104600D03*
D13*
%TO.P,,2ca73054-f3d6-4d48-a63a-64d3685a329d__9bcac7cd-9550-1b76-7437-116b7b149acb*%
X-15832500Y12824600D03*
D12*
%TO.P,,2ca73054-f3d6-4d48-a63a-64d3685a329d__af29ed9e-fb5e-ffcb-8c70-ef17bb20a3f0*%
X-9112500Y12824600D03*
%TO.P,,2ca73054-f3d6-4d48-a63a-64d3685a329d__b997a432-7c81-91d5-40c2-0a5b26e3039a*%
X-9112500Y6104600D03*
%TO.P,,2ca73054-f3d6-4d48-a63a-64d3685a329d__ecf15d2d-288e-fb45-273c-7a3fb9734dbc*%
X-17222500Y9464600D03*
D15*
%TO.P,,335c0fef-469e-426c-a177-183da72bf9e2__0344b740-55eb-48bd-b5cc-803ef830e261*%
X-7872800Y-8051400D03*
%TO.P,,335c0fef-469e-426c-a177-183da72bf9e2__065e2173-39dd-4f8c-b8d8-9aa30e89d04f*%
X-19872800Y-4751400D03*
%TO.P,,335c0fef-469e-426c-a177-183da72bf9e2__1b2888f1-e987-44e3-a348-1ffffc84068a*%
X-19872800Y-6951400D03*
%TO.P,,335c0fef-469e-426c-a177-183da72bf9e2__2022fa7e-894b-443c-8d12-4fb3c1ec5c0a*%
X-7872800Y-6951400D03*
%TO.P,,335c0fef-469e-426c-a177-183da72bf9e2__24b3d924-9fde-494c-a523-5c17b565b2ee*%
X-7872800Y448600D03*
%TO.P,,335c0fef-469e-426c-a177-183da72bf9e2__298e6c29-7712-47a9-88ed-cf95a30d7e88*%
X-19872800Y2648600D03*
%TO.P,,335c0fef-469e-426c-a177-183da72bf9e2__2d73e1d7-ac72-4343-be18-b5eb8dff0af5*%
X-7872800Y2648600D03*
%TO.P,,335c0fef-469e-426c-a177-183da72bf9e2__2f312555-6c6c-45e7-a2ba-3e9b0d4dee11*%
X-7872800Y-5851400D03*
%TO.P,,335c0fef-469e-426c-a177-183da72bf9e2__3ad6525e-8259-472a-9fad-64079fd68e1c*%
X-19872800Y-5851400D03*
%TO.P,,335c0fef-469e-426c-a177-183da72bf9e2__3cf68de8-f0af-465e-a22c-8f0ef81c22d8*%
X-19872800Y-9151400D03*
%TO.P,,335c0fef-469e-426c-a177-183da72bf9e2__3db8593b-8717-4df5-83d3-9a09d94a79bf*%
X-19872800Y448600D03*
%TO.P,,335c0fef-469e-426c-a177-183da72bf9e2__42246c11-8451-43f1-85dd-aa65a17600f6*%
X-7872800Y-651400D03*
%TO.P,,335c0fef-469e-426c-a177-183da72bf9e2__4b8e2d78-b82b-4544-8581-717b84061a2e*%
X-7872800Y3748600D03*
%TO.P,,335c0fef-469e-426c-a177-183da72bf9e2__4e13efd4-b639-4862-9a05-0d5ea6d1f04e*%
X-7872800Y-4751400D03*
%TO.P,,335c0fef-469e-426c-a177-183da72bf9e2__62e7dd72-559e-45d4-b477-53e011f82d58*%
X-19872800Y3748600D03*
%TO.P,,335c0fef-469e-426c-a177-183da72bf9e2__807163a7-c45f-4de4-aa62-12cfbe79840e*%
X-7872800Y4848600D03*
%TO.P,,335c0fef-469e-426c-a177-183da72bf9e2__8b824439-deb6-4b42-823f-35b4550b2484*%
X-19872800Y-651400D03*
%TO.P,,335c0fef-469e-426c-a177-183da72bf9e2__9b8c385a-fbb6-45d6-9dd2-bd4283baf4af*%
X-7872800Y-9151400D03*
%TO.P,,335c0fef-469e-426c-a177-183da72bf9e2__c747bdbe-0203-4156-8953-c3f833600aaf*%
X-19872800Y-8051400D03*
%TO.P,,335c0fef-469e-426c-a177-183da72bf9e2__cad94e67-c556-4104-9060-e64e64de7a79*%
X-19872800Y-1751400D03*
%TO.P,,335c0fef-469e-426c-a177-183da72bf9e2__e00a67db-0e9a-4bbc-84e3-8a14c4d6d38f*%
X-7872800Y1548600D03*
%TO.P,,335c0fef-469e-426c-a177-183da72bf9e2__e0e22185-6ef1-4226-94b4-96b868b20472*%
X-19872800Y1548600D03*
%TO.P,,335c0fef-469e-426c-a177-183da72bf9e2__fc83ee8b-79a7-4d19-89f3-9ea0de826e15*%
X-7872800Y-1751400D03*
%TO.P,,335c0fef-469e-426c-a177-183da72bf9e2__52d2fe2e-bf8e-496d-850d-624713867f43.defaultFootprint.mounts.be8fd208378948ca8a994c01f0d49f38*%
X-19872800Y4848600D03*
D16*
%TO.P,,524fe574-ded1-479e-91f4-8c6378144d1f__73c55224-2aaf-4f17-9cdc-75dfb4d68290*%
X-22302000Y3903100D03*
%TO.P,,524fe574-ded1-479e-91f4-8c6378144d1f__af5aaa3f-b0bb-49a8-9b95-9e810f48fa14*%
X-40417000Y9787200D03*
%TO.P,,524fe574-ded1-479e-91f4-8c6378144d1f__d3057468-6f43-482f-8742-75afa428cf1b*%
X-45457400Y4412200D03*
%TO.P,,524fe574-ded1-479e-91f4-8c6378144d1f__ec1c6c3a-0b27-4de4-b84f-19e251cfe311*%
X-20936800Y-5177200D03*
%TO.P,,524fe574-ded1-479e-91f4-8c6378144d1f__f66aab5d-31a1-419b-909f-b926469a2a7d*%
X-44666600Y11196600D03*
D17*
%TO.P,,524fe574-ded1-479e-91f4-8c6378144d1f__0e7aa31f-adad-40f8-9cdb-e644d5d14343__01f9f934-68ec-8f74-1ae3-e10fbfbab168*%
X-34417003Y2512200D03*
%TO.P,,524fe574-ded1-479e-91f4-8c6378144d1f__0e7aa31f-adad-40f8-9cdb-e644d5d14343__c0b736e9-ddb9-3e06-7eaa-230be2d07706*%
X-34416997Y862200D03*
D18*
%TO.P,,524fe574-ded1-479e-91f4-8c6378144d1f__0eebb468-7faa-4e9b-b67e-c156a04dac7c__01f9f934-68ec-8f74-1ae3-e10fbfbab168*%
X-42666999Y17962200D03*
%TO.P,,524fe574-ded1-479e-91f4-8c6378144d1f__0eebb468-7faa-4e9b-b67e-c156a04dac7c__c0b736e9-ddb9-3e06-7eaa-230be2d07706*%
X-42667001Y19612200D03*
D19*
%TO.P,,524fe574-ded1-479e-91f4-8c6378144d1f__10b06049-5bf7-443b-8185-c91b11f447e2__0619aa47-5764-48ea-9f37-297e85f1ff6b*%
X-19667000Y20487200D03*
%TO.P,,524fe574-ded1-479e-91f4-8c6378144d1f__10b06049-5bf7-443b-8185-c91b11f447e2__0cc12ccc-bb6d-45a9-93cf-d0dbc41f7de7*%
X-19667000Y10287200D03*
D20*
%TO.P,,524fe574-ded1-479e-91f4-8c6378144d1f__10b06049-5bf7-443b-8185-c91b11f447e2__1164e9d6-2613-4a79-b889-faf6b40bf51a*%
X-33667000Y23237200D03*
D21*
%TO.P,,524fe574-ded1-479e-91f4-8c6378144d1f__10b06049-5bf7-443b-8185-c91b11f447e2__20728cb6-290c-415a-95be-fd449448cb82*%
X-20717000Y23237200D03*
D19*
%TO.P,,524fe574-ded1-479e-91f4-8c6378144d1f__10b06049-5bf7-443b-8185-c91b11f447e2__20ff456d-aa38-4f99-a7b5-e11d39e71af6*%
X-33667000Y16237200D03*
D21*
%TO.P,,524fe574-ded1-479e-91f4-8c6378144d1f__10b06049-5bf7-443b-8185-c91b11f447e2__230e26c0-c4b2-4072-9fa1-bb4f11bcbdd4*%
X-29217000Y23237200D03*
D20*
%TO.P,,524fe574-ded1-479e-91f4-8c6378144d1f__10b06049-5bf7-443b-8185-c91b11f447e2__2433c22d-6df0-487c-b654-e9c229b176e7*%
X-19667000Y9237200D03*
D21*
%TO.P,,524fe574-ded1-479e-91f4-8c6378144d1f__10b06049-5bf7-443b-8185-c91b11f447e2__28f3e3eb-99b3-4025-a884-e89780238be6*%
X-23267000Y9237200D03*
%TO.P,,524fe574-ded1-479e-91f4-8c6378144d1f__10b06049-5bf7-443b-8185-c91b11f447e2__29fe8409-f72d-404d-9c96-75afe60c21e9*%
X-21567000Y23237200D03*
D19*
%TO.P,,524fe574-ded1-479e-91f4-8c6378144d1f__10b06049-5bf7-443b-8185-c91b11f447e2__2dfb6ec5-f5a4-43b0-831c-f37f64a0459a*%
X-33667000Y18787200D03*
D21*
%TO.P,,524fe574-ded1-479e-91f4-8c6378144d1f__10b06049-5bf7-443b-8185-c91b11f447e2__2e71f87c-c865-4f34-83f7-8bb27b965631*%
X-27517000Y9237200D03*
%TO.P,,524fe574-ded1-479e-91f4-8c6378144d1f__10b06049-5bf7-443b-8185-c91b11f447e2__38317cc4-5899-4383-acb3-d0f7b990496b*%
X-25817000Y23237200D03*
D19*
%TO.P,,524fe574-ded1-479e-91f4-8c6378144d1f__10b06049-5bf7-443b-8185-c91b11f447e2__3b6f0c87-659b-4aef-8def-8255f7e2e505*%
X-33667000Y14537200D03*
%TO.P,,524fe574-ded1-479e-91f4-8c6378144d1f__10b06049-5bf7-443b-8185-c91b11f447e2__3dcc3396-dccf-4182-a10b-08026020945e*%
X-33667000Y11137200D03*
D21*
%TO.P,,524fe574-ded1-479e-91f4-8c6378144d1f__10b06049-5bf7-443b-8185-c91b11f447e2__3e1f4f4e-a213-4b42-8f3a-e18c1c5d9d04*%
X-32617000Y9237200D03*
%TO.P,,524fe574-ded1-479e-91f4-8c6378144d1f__10b06049-5bf7-443b-8185-c91b11f447e2__4219d44b-59a1-424b-b6f1-99d30ce91b8a*%
X-26667000Y9237200D03*
D20*
%TO.P,,524fe574-ded1-479e-91f4-8c6378144d1f__10b06049-5bf7-443b-8185-c91b11f447e2__422be558-2abf-4474-b4e0-fbb5bbf3f79c*%
X-19667000Y23237200D03*
D22*
%TO.P,,524fe574-ded1-479e-91f4-8c6378144d1f__10b06049-5bf7-443b-8185-c91b11f447e2__4615e761-0658-4061-9c41-f411931907bb*%
X-25017000Y14587200D03*
D20*
%TO.P,,524fe574-ded1-479e-91f4-8c6378144d1f__10b06049-5bf7-443b-8185-c91b11f447e2__4731eb98-f869-4d15-b0c5-5a5b61d55e0b*%
X-33667000Y9237200D03*
D19*
%TO.P,,524fe574-ded1-479e-91f4-8c6378144d1f__10b06049-5bf7-443b-8185-c91b11f447e2__489d7c13-7f85-4a97-abd2-901ab53ef1bb*%
X-19667000Y11987200D03*
D21*
%TO.P,,524fe574-ded1-479e-91f4-8c6378144d1f__10b06049-5bf7-443b-8185-c91b11f447e2__4a62890c-557b-4879-983b-e41882479fc6*%
X-24117000Y9237200D03*
D19*
%TO.P,,524fe574-ded1-479e-91f4-8c6378144d1f__10b06049-5bf7-443b-8185-c91b11f447e2__4db35dff-cbe7-4bb4-a8c8-3ae24158259f*%
X-33667000Y17087200D03*
D21*
%TO.P,,524fe574-ded1-479e-91f4-8c6378144d1f__10b06049-5bf7-443b-8185-c91b11f447e2__54eb1e09-719f-4b36-8b7f-b1ba672b525d*%
X-30917000Y9237200D03*
D19*
%TO.P,,524fe574-ded1-479e-91f4-8c6378144d1f__10b06049-5bf7-443b-8185-c91b11f447e2__574ad87b-61e5-4fda-9f0f-fa666fb5dcd0*%
X-33667000Y22187200D03*
D21*
%TO.P,,524fe574-ded1-479e-91f4-8c6378144d1f__10b06049-5bf7-443b-8185-c91b11f447e2__580baa22-a879-4edf-a9ff-c892227e0dff*%
X-32617000Y23237200D03*
D22*
%TO.P,,524fe574-ded1-479e-91f4-8c6378144d1f__10b06049-5bf7-443b-8185-c91b11f447e2__6569ae95-1d08-42c6-b701-1a79c89ae9ce*%
X-26667000Y16237200D03*
D21*
%TO.P,,524fe574-ded1-479e-91f4-8c6378144d1f__10b06049-5bf7-443b-8185-c91b11f447e2__68979a23-3c30-4859-af61-2af864fd8544*%
X-30067000Y23237200D03*
%TO.P,,524fe574-ded1-479e-91f4-8c6378144d1f__10b06049-5bf7-443b-8185-c91b11f447e2__72ade945-aa63-4137-91d4-f84d6a5d562d*%
X-31767000Y9237200D03*
%TO.P,,524fe574-ded1-479e-91f4-8c6378144d1f__10b06049-5bf7-443b-8185-c91b11f447e2__76ecf742-ab26-4b4f-a7ad-844287c55ec4*%
X-24967000Y9237200D03*
%TO.P,,524fe574-ded1-479e-91f4-8c6378144d1f__10b06049-5bf7-443b-8185-c91b11f447e2__78325b12-6d2e-42e2-b555-c515e864f7f2*%
X-25817000Y9237200D03*
D22*
%TO.P,,524fe574-ded1-479e-91f4-8c6378144d1f__10b06049-5bf7-443b-8185-c91b11f447e2__7936f3ac-f4e4-4a73-98e9-e914509cbd58*%
X-25017000Y17887200D03*
D19*
%TO.P,,524fe574-ded1-479e-91f4-8c6378144d1f__10b06049-5bf7-443b-8185-c91b11f447e2__7948ebda-51f9-4f89-bc2a-dddcb413957f*%
X-33667000Y11987200D03*
D21*
%TO.P,,524fe574-ded1-479e-91f4-8c6378144d1f__10b06049-5bf7-443b-8185-c91b11f447e2__7ad9f3b8-b2fa-422b-9bae-97ac46f3742e*%
X-24117000Y23237200D03*
D19*
%TO.P,,524fe574-ded1-479e-91f4-8c6378144d1f__10b06049-5bf7-443b-8185-c91b11f447e2__7cf915db-213b-4e63-a11d-4e21a3109a04*%
X-33667000Y21337200D03*
D21*
%TO.P,,524fe574-ded1-479e-91f4-8c6378144d1f__10b06049-5bf7-443b-8185-c91b11f447e2__82ff22f4-28c4-420d-834c-a857b45c358c*%
X-26667000Y23237200D03*
D19*
%TO.P,,524fe574-ded1-479e-91f4-8c6378144d1f__10b06049-5bf7-443b-8185-c91b11f447e2__8456e8b7-1408-475f-8e5c-832d10a692ec*%
X-19667000Y11137200D03*
D22*
%TO.P,,524fe574-ded1-479e-91f4-8c6378144d1f__10b06049-5bf7-443b-8185-c91b11f447e2__8fa1e435-e722-4f35-83aa-ffcd454863ae*%
X-26667000Y14587200D03*
D21*
%TO.P,,524fe574-ded1-479e-91f4-8c6378144d1f__10b06049-5bf7-443b-8185-c91b11f447e2__9312daef-78b2-4b71-9b60-99293e48fc06*%
X-27517000Y23237200D03*
D19*
%TO.P,,524fe574-ded1-479e-91f4-8c6378144d1f__10b06049-5bf7-443b-8185-c91b11f447e2__95b952d7-09a8-4cfa-a4da-b50ec0da5466*%
X-33667000Y12837200D03*
D21*
%TO.P,,524fe574-ded1-479e-91f4-8c6378144d1f__10b06049-5bf7-443b-8185-c91b11f447e2__9e284188-4834-450a-8eaf-a43d1aa8a79f*%
X-22417000Y23237200D03*
%TO.P,,524fe574-ded1-479e-91f4-8c6378144d1f__10b06049-5bf7-443b-8185-c91b11f447e2__a2f0d738-853d-4135-bd2e-80150b93d805*%
X-29217000Y9237200D03*
D22*
%TO.P,,524fe574-ded1-479e-91f4-8c6378144d1f__10b06049-5bf7-443b-8185-c91b11f447e2__a3b353f1-3159-4450-96fb-fc3084bd25f4*%
X-26667000Y17887200D03*
%TO.P,,524fe574-ded1-479e-91f4-8c6378144d1f__10b06049-5bf7-443b-8185-c91b11f447e2__a40a92ba-ac05-435f-a77a-4b1dda0ba263*%
X-28317000Y14587200D03*
D19*
%TO.P,,524fe574-ded1-479e-91f4-8c6378144d1f__10b06049-5bf7-443b-8185-c91b11f447e2__a70c046d-aaca-4b86-87b3-313fc9547979*%
X-19667000Y15387200D03*
%TO.P,,524fe574-ded1-479e-91f4-8c6378144d1f__10b06049-5bf7-443b-8185-c91b11f447e2__a8350197-e1ff-480f-93c8-673f30e7031a*%
X-19667000Y13687200D03*
%TO.P,,524fe574-ded1-479e-91f4-8c6378144d1f__10b06049-5bf7-443b-8185-c91b11f447e2__aa5d7e43-17cf-47e1-996b-e5867e9a69c0*%
X-33667000Y15387200D03*
D21*
%TO.P,,524fe574-ded1-479e-91f4-8c6378144d1f__10b06049-5bf7-443b-8185-c91b11f447e2__abc15d35-5305-4aca-8213-9d3e02b7b47b*%
X-20717000Y9237200D03*
%TO.P,,524fe574-ded1-479e-91f4-8c6378144d1f__10b06049-5bf7-443b-8185-c91b11f447e2__b70a7641-8582-4db5-bf18-063874b957e5*%
X-28367000Y9237200D03*
%TO.P,,524fe574-ded1-479e-91f4-8c6378144d1f__10b06049-5bf7-443b-8185-c91b11f447e2__b93dfb97-f73f-4c7b-a685-50b0affbe418*%
X-30917000Y23237200D03*
D23*
%TO.P,,524fe574-ded1-479e-91f4-8c6378144d1f__10b06049-5bf7-443b-8185-c91b11f447e2__bc597a9b-9663-47a5-a4ac-a0b44c8c5043*%
X-28317000Y17887200D03*
D19*
%TO.P,,524fe574-ded1-479e-91f4-8c6378144d1f__10b06049-5bf7-443b-8185-c91b11f447e2__c02d5c73-8d48-40a8-a309-1e02a43849b1*%
X-33667000Y13687200D03*
D21*
%TO.P,,524fe574-ded1-479e-91f4-8c6378144d1f__10b06049-5bf7-443b-8185-c91b11f447e2__c8486eed-a631-4c30-9869-9c4ec3b5085e*%
X-24967000Y23237200D03*
%TO.P,,524fe574-ded1-479e-91f4-8c6378144d1f__10b06049-5bf7-443b-8185-c91b11f447e2__c910cee7-5564-4c87-b8c9-c02646b38cd4*%
X-22417000Y9237200D03*
%TO.P,,524fe574-ded1-479e-91f4-8c6378144d1f__10b06049-5bf7-443b-8185-c91b11f447e2__ca09c323-1725-4c56-b7e0-07ceb97f359e*%
X-31767000Y23237200D03*
D19*
%TO.P,,524fe574-ded1-479e-91f4-8c6378144d1f__10b06049-5bf7-443b-8185-c91b11f447e2__d2eb3958-f346-4879-9584-3ec0bc34d3cd*%
X-19667000Y16237200D03*
%TO.P,,524fe574-ded1-479e-91f4-8c6378144d1f__10b06049-5bf7-443b-8185-c91b11f447e2__d3d12676-908d-4b33-ad73-14faf65d980e*%
X-33667000Y19637200D03*
%TO.P,,524fe574-ded1-479e-91f4-8c6378144d1f__10b06049-5bf7-443b-8185-c91b11f447e2__d6f45955-9600-4da7-8e06-08681f222218*%
X-19667000Y21337200D03*
D21*
%TO.P,,524fe574-ded1-479e-91f4-8c6378144d1f__10b06049-5bf7-443b-8185-c91b11f447e2__d6fe900d-161b-4c9e-a1fc-be72e1d6dd61*%
X-28367000Y23237200D03*
D19*
%TO.P,,524fe574-ded1-479e-91f4-8c6378144d1f__10b06049-5bf7-443b-8185-c91b11f447e2__da59a7a5-90e5-4f32-9ed3-e16f1e128a34*%
X-19667000Y17937200D03*
D22*
%TO.P,,524fe574-ded1-479e-91f4-8c6378144d1f__10b06049-5bf7-443b-8185-c91b11f447e2__e0c042ef-5132-4115-b7d7-fbc9936eace3*%
X-28317000Y16237200D03*
D19*
%TO.P,,524fe574-ded1-479e-91f4-8c6378144d1f__10b06049-5bf7-443b-8185-c91b11f447e2__e13c6f0b-90cb-4a59-b918-2451938f5c35*%
X-19667000Y22187200D03*
D21*
%TO.P,,524fe574-ded1-479e-91f4-8c6378144d1f__10b06049-5bf7-443b-8185-c91b11f447e2__e4a3617f-7316-4b18-bfc2-97ec9277ab34*%
X-30067000Y9237200D03*
D19*
%TO.P,,524fe574-ded1-479e-91f4-8c6378144d1f__10b06049-5bf7-443b-8185-c91b11f447e2__e56e4b09-6549-402a-bab5-8347066684fd*%
X-19667000Y19637200D03*
%TO.P,,524fe574-ded1-479e-91f4-8c6378144d1f__10b06049-5bf7-443b-8185-c91b11f447e2__e6a868db-9cf9-43c9-8a4d-fe533f725b2c*%
X-33667000Y10287200D03*
%TO.P,,524fe574-ded1-479e-91f4-8c6378144d1f__10b06049-5bf7-443b-8185-c91b11f447e2__e82a689b-4fdf-465f-83e8-bf3c41759cd0*%
X-19667000Y14537200D03*
D21*
%TO.P,,524fe574-ded1-479e-91f4-8c6378144d1f__10b06049-5bf7-443b-8185-c91b11f447e2__e96fb731-f940-431b-baed-8a099c410fff*%
X-23267000Y23237200D03*
D19*
%TO.P,,524fe574-ded1-479e-91f4-8c6378144d1f__10b06049-5bf7-443b-8185-c91b11f447e2__ee36c637-79b0-4a9d-8387-24afd0af0a23*%
X-33667000Y20487200D03*
D21*
%TO.P,,524fe574-ded1-479e-91f4-8c6378144d1f__10b06049-5bf7-443b-8185-c91b11f447e2__efe8e575-9bb5-47ee-ab25-428886691387*%
X-21567000Y9237200D03*
D19*
%TO.P,,524fe574-ded1-479e-91f4-8c6378144d1f__10b06049-5bf7-443b-8185-c91b11f447e2__f4829949-4b1e-48e1-9c42-2b08ae7e5f87*%
X-19667000Y18787200D03*
%TO.P,,524fe574-ded1-479e-91f4-8c6378144d1f__10b06049-5bf7-443b-8185-c91b11f447e2__f5050fa6-4f15-45b8-9e0b-f396768abc2a*%
X-33667000Y17937200D03*
%TO.P,,524fe574-ded1-479e-91f4-8c6378144d1f__10b06049-5bf7-443b-8185-c91b11f447e2__f71aae9e-b2d2-49e8-9889-bded2f9a2451*%
X-19667000Y12837200D03*
%TO.P,,524fe574-ded1-479e-91f4-8c6378144d1f__10b06049-5bf7-443b-8185-c91b11f447e2__fd002b74-4a02-4688-9088-78a730b8deda*%
X-19667000Y17087200D03*
D22*
%TO.P,,524fe574-ded1-479e-91f4-8c6378144d1f__10b06049-5bf7-443b-8185-c91b11f447e2__ffe3b082-1644-4f21-9298-5d69c04b8546*%
X-25017000Y16237200D03*
D24*
%TO.P,,524fe574-ded1-479e-91f4-8c6378144d1f__121214e8-d5e4-469e-bc8c-5ac209764fd5__a8b75a33-3cb2-8e5c-90f2-4f5d5d478f01*%
X-23757000Y-3987800D03*
%TO.P,,524fe574-ded1-479e-91f4-8c6378144d1f__121214e8-d5e4-469e-bc8c-5ac209764fd5__e7d28857-a36c-3a38-170d-dea6c395fcdc*%
X-22207000Y-3987800D03*
%TO.P,,524fe574-ded1-479e-91f4-8c6378144d1f__1922a83b-fa3e-44ba-a0eb-df67a2146124__a8b75a33-3cb2-8e5c-90f2-4f5d5d478f01*%
X-23757000Y-8210000D03*
%TO.P,,524fe574-ded1-479e-91f4-8c6378144d1f__1922a83b-fa3e-44ba-a0eb-df67a2146124__e7d28857-a36c-3a38-170d-dea6c395fcdc*%
X-22207000Y-8210000D03*
D17*
%TO.P,,524fe574-ded1-479e-91f4-8c6378144d1f__1f416857-95d6-47ec-ac0e-7ada4a13988c__01f9f934-68ec-8f74-1ae3-e10fbfbab168*%
X-33092003Y2512200D03*
%TO.P,,524fe574-ded1-479e-91f4-8c6378144d1f__1f416857-95d6-47ec-ac0e-7ada4a13988c__c0b736e9-ddb9-3e06-7eaa-230be2d07706*%
X-33091997Y862200D03*
D25*
%TO.P,,524fe574-ded1-479e-91f4-8c6378144d1f__2354d458-f5af-4d07-8d83-2143ffb53478__0085da58-ba94-9f96-ec85-8d16384fa131*%
X-41067000Y4412200D03*
%TO.P,,524fe574-ded1-479e-91f4-8c6378144d1f__2354d458-f5af-4d07-8d83-2143ffb53478__419bc6d8-5c3d-f146-f7d0-edc2a4cc07ef*%
X-45567000Y2262200D03*
%TO.P,,524fe574-ded1-479e-91f4-8c6378144d1f__2354d458-f5af-4d07-8d83-2143ffb53478__86340d85-e791-fb4e-c3c5-eb12b899817a*%
X-45567000Y4412200D03*
%TO.P,,524fe574-ded1-479e-91f4-8c6378144d1f__2354d458-f5af-4d07-8d83-2143ffb53478__af593a51-bd6b-32bd-d4f9-077db4f49b2d*%
X-41067000Y2262200D03*
D26*
%TO.P,,524fe574-ded1-479e-91f4-8c6378144d1f__366fe70b-2e7c-4825-83ef-e435b0a7bfa1__03602cef-c910-5091-5164-44518698b632*%
X-44517014Y21742209D03*
%TO.P,,524fe574-ded1-479e-91f4-8c6378144d1f__366fe70b-2e7c-4825-83ef-e435b0a7bfa1__0fc57345-905e-f1f5-4c87-91cd9e212247*%
X-38017014Y21742191D03*
D27*
%TO.P,,524fe574-ded1-479e-91f4-8c6378144d1f__366fe70b-2e7c-4825-83ef-e435b0a7bfa1__150926e6-554d-ee90-a18c-4de0f9473a89*%
X-42017014Y21742202D03*
D28*
%TO.P,,524fe574-ded1-479e-91f4-8c6378144d1f__366fe70b-2e7c-4825-83ef-e435b0a7bfa1__151de0cf-061c-022d-750c-8059298fd331*%
X-36947000Y26837189D03*
D26*
%TO.P,,524fe574-ded1-479e-91f4-8c6378144d1f__366fe70b-2e7c-4825-83ef-e435b0a7bfa1__2846257a-9d28-7e65-e33c-52c78886070f*%
X-43717014Y21742207D03*
D27*
%TO.P,,524fe574-ded1-479e-91f4-8c6378144d1f__366fe70b-2e7c-4825-83ef-e435b0a7bfa1__325add3f-a3fc-9667-682c-aa6fc51999bc*%
X-42517014Y21742203D03*
%TO.P,,524fe574-ded1-479e-91f4-8c6378144d1f__366fe70b-2e7c-4825-83ef-e435b0a7bfa1__3a88455a-7f6d-5b30-9168-c07170a918ef*%
X-43017014Y21742205D03*
%TO.P,,524fe574-ded1-479e-91f4-8c6378144d1f__366fe70b-2e7c-4825-83ef-e435b0a7bfa1__3de9d303-3aeb-343e-eb97-03738ac0e2f0*%
X-40017014Y21742197D03*
%TO.P,,524fe574-ded1-479e-91f4-8c6378144d1f__366fe70b-2e7c-4825-83ef-e435b0a7bfa1__5a8bf467-6995-9c1f-6c13-5f75dfd281b9*%
X-41017014Y21742199D03*
D28*
%TO.P,,524fe574-ded1-479e-91f4-8c6378144d1f__366fe70b-2e7c-4825-83ef-e435b0a7bfa1__5e795bfa-6176-7428-dfe5-65e868c08581*%
X-36947011Y22657189D03*
%TO.P,,524fe574-ded1-479e-91f4-8c6378144d1f__366fe70b-2e7c-4825-83ef-e435b0a7bfa1__6b0ad07c-f3cb-7015-1df6-80edd334a834*%
X-45587000Y26837211D03*
D26*
%TO.P,,524fe574-ded1-479e-91f4-8c6378144d1f__366fe70b-2e7c-4825-83ef-e435b0a7bfa1__78c9cfc2-41d4-522e-4d51-72ea11d7a593*%
X-38817014Y21742193D03*
D27*
%TO.P,,524fe574-ded1-479e-91f4-8c6378144d1f__366fe70b-2e7c-4825-83ef-e435b0a7bfa1__96e7f363-281f-09df-fcba-484b7757679d*%
X-39517014Y21742195D03*
%TO.P,,524fe574-ded1-479e-91f4-8c6378144d1f__366fe70b-2e7c-4825-83ef-e435b0a7bfa1__a9ecf861-9ab6-93c2-c419-7722be682cd4*%
X-41517014Y21742201D03*
%TO.P,,524fe574-ded1-479e-91f4-8c6378144d1f__366fe70b-2e7c-4825-83ef-e435b0a7bfa1__b10c8ee8-8ae4-da4a-70fa-81255ed60c40*%
X-40517014Y21742198D03*
D28*
%TO.P,,524fe574-ded1-479e-91f4-8c6378144d1f__366fe70b-2e7c-4825-83ef-e435b0a7bfa1__eca2d66d-a4ef-8042-25d5-7e14a1b61bf2*%
X-45587011Y22657211D03*
D29*
%TO.P,,524fe574-ded1-479e-91f4-8c6378144d1f__366fe70b-2e7c-4825-83ef-e435b0a7bfa1__2abc0520-f859-9267-43a7-fe1576b97ac1.mounts.18bf087486b8d015d51f11af05d7673e*%
X-44157010Y23187208D03*
%TO.P,,524fe574-ded1-479e-91f4-8c6378144d1f__366fe70b-2e7c-4825-83ef-e435b0a7bfa1__2abc0520-f859-9267-43a7-fe1576b97ac1.mounts.3c633e70d7eaebb1b44c3783a2bacc9d*%
X-38377010Y23187192D03*
D17*
%TO.P,,524fe574-ded1-479e-91f4-8c6378144d1f__3d359768-4872-4288-971b-3636be1b4e71__01f9f934-68ec-8f74-1ae3-e10fbfbab168*%
X-31767003Y2512200D03*
%TO.P,,524fe574-ded1-479e-91f4-8c6378144d1f__3d359768-4872-4288-971b-3636be1b4e71__c0b736e9-ddb9-3e06-7eaa-230be2d07706*%
X-31766997Y862200D03*
D30*
%TO.P,,524fe574-ded1-479e-91f4-8c6378144d1f__42166df9-7d32-4949-9a90-bda17405026a__a8b75a33-3cb2-8e5c-90f2-4f5d5d478f01*%
X-37567000Y-1087802D03*
%TO.P,,524fe574-ded1-479e-91f4-8c6378144d1f__42166df9-7d32-4949-9a90-bda17405026a__e7d28857-a36c-3a38-170d-dea6c395fcdc*%
X-39117000Y-1087798D03*
D25*
%TO.P,,524fe574-ded1-479e-91f4-8c6378144d1f__46626d02-7145-4650-bc33-ced1ac9fb2c7__0085da58-ba94-9f96-ec85-8d16384fa131*%
X-41067000Y-1087800D03*
%TO.P,,524fe574-ded1-479e-91f4-8c6378144d1f__46626d02-7145-4650-bc33-ced1ac9fb2c7__419bc6d8-5c3d-f146-f7d0-edc2a4cc07ef*%
X-45567000Y-3237800D03*
%TO.P,,524fe574-ded1-479e-91f4-8c6378144d1f__46626d02-7145-4650-bc33-ced1ac9fb2c7__86340d85-e791-fb4e-c3c5-eb12b899817a*%
X-45567000Y-1087800D03*
%TO.P,,524fe574-ded1-479e-91f4-8c6378144d1f__46626d02-7145-4650-bc33-ced1ac9fb2c7__af593a51-bd6b-32bd-d4f9-077db4f49b2d*%
X-41067000Y-3237800D03*
D31*
%TO.P,,524fe574-ded1-479e-91f4-8c6378144d1f__48f1e21b-98b2-4f52-b897-d4bd7e270aca__13232d18-2623-5529-0aae-be0a02ebac1b*%
X-32242002Y4112199D03*
%TO.P,,524fe574-ded1-479e-91f4-8c6378144d1f__48f1e21b-98b2-4f52-b897-d4bd7e270aca__8393c61d-c736-5814-faa9-97f8c2adf391*%
X-33092002Y4112201D03*
%TO.P,,524fe574-ded1-479e-91f4-8c6378144d1f__48f1e21b-98b2-4f52-b897-d4bd7e270aca__a7c86336-620e-801b-6fa4-32b4869c3951*%
X-33091998Y5562201D03*
%TO.P,,524fe574-ded1-479e-91f4-8c6378144d1f__48f1e21b-98b2-4f52-b897-d4bd7e270aca__b9b848dc-a9b1-544a-1a25-95055128557e*%
X-32241998Y5562199D03*
D32*
%TO.P,,524fe574-ded1-479e-91f4-8c6378144d1f__50b658de-dcaa-404d-a833-4b0a29410a71__01f9f934-68ec-8f74-1ae3-e10fbfbab168*%
X-20937000Y-3987798D03*
%TO.P,,524fe574-ded1-479e-91f4-8c6378144d1f__50b658de-dcaa-404d-a833-4b0a29410a71__c0b736e9-ddb9-3e06-7eaa-230be2d07706*%
X-19287000Y-3987802D03*
D30*
%TO.P,,524fe574-ded1-479e-91f4-8c6378144d1f__65bca2e8-6c4c-4c51-93fd-fb045d3e5a38__a8b75a33-3cb2-8e5c-90f2-4f5d5d478f01*%
X-19387000Y-5391102D03*
%TO.P,,524fe574-ded1-479e-91f4-8c6378144d1f__65bca2e8-6c4c-4c51-93fd-fb045d3e5a38__e7d28857-a36c-3a38-170d-dea6c395fcdc*%
X-20937000Y-5391098D03*
D24*
%TO.P,,524fe574-ded1-479e-91f4-8c6378144d1f__6a3bf764-0e6c-4aad-b94a-8d5bf7f64f41__a8b75a33-3cb2-8e5c-90f2-4f5d5d478f01*%
X-36947000Y18787200D03*
%TO.P,,524fe574-ded1-479e-91f4-8c6378144d1f__6a3bf764-0e6c-4aad-b94a-8d5bf7f64f41__e7d28857-a36c-3a38-170d-dea6c395fcdc*%
X-35397000Y18787200D03*
D33*
%TO.P,,524fe574-ded1-479e-91f4-8c6378144d1f__75f90593-b04f-46f9-9acb-0d1ce75bb639__6bf9f110-c3cd-54fc-de9f-ba54dfa39628*%
X-21031991Y-1437798D03*
%TO.P,,524fe574-ded1-479e-91f4-8c6378144d1f__75f90593-b04f-46f9-9acb-0d1ce75bb639__7ebf3361-ca0a-2d41-1080-2e05c9d8ff28*%
X-23572009Y3512193D03*
%TO.P,,524fe574-ded1-479e-91f4-8c6378144d1f__75f90593-b04f-46f9-9acb-0d1ce75bb639__81dce327-1a83-6955-74a6-3015c3f80b68*%
X-21032009Y3512202D03*
%TO.P,,524fe574-ded1-479e-91f4-8c6378144d1f__75f90593-b04f-46f9-9acb-0d1ce75bb639__83dfd3b1-b97f-e550-9fea-9bc475fd1d8c*%
X-19761991Y-1437793D03*
%TO.P,,524fe574-ded1-479e-91f4-8c6378144d1f__75f90593-b04f-46f9-9acb-0d1ce75bb639__b93c1015-606c-112e-fe7c-1a81e01dac63*%
X-22301991Y-1437802D03*
%TO.P,,524fe574-ded1-479e-91f4-8c6378144d1f__75f90593-b04f-46f9-9acb-0d1ce75bb639__d704186c-6fb2-ac5f-22cf-1a2cdcf0cd65*%
X-19762009Y3512207D03*
%TO.P,,524fe574-ded1-479e-91f4-8c6378144d1f__75f90593-b04f-46f9-9acb-0d1ce75bb639__dcf8ae0c-76c4-af44-b4e5-27c2fb2205ed*%
X-22302009Y3512198D03*
%TO.P,,524fe574-ded1-479e-91f4-8c6378144d1f__75f90593-b04f-46f9-9acb-0d1ce75bb639__fe38dba7-e2bf-2fb5-4007-00cc91b20813*%
X-23571991Y-1437807D03*
D30*
%TO.P,,524fe574-ded1-479e-91f4-8c6378144d1f__799bfe86-398e-4a17-a93a-85baee246c90__a8b75a33-3cb2-8e5c-90f2-4f5d5d478f01*%
X-37567000Y2262198D03*
%TO.P,,524fe574-ded1-479e-91f4-8c6378144d1f__799bfe86-398e-4a17-a93a-85baee246c90__e7d28857-a36c-3a38-170d-dea6c395fcdc*%
X-39117000Y2262202D03*
D34*
%TO.P,,524fe574-ded1-479e-91f4-8c6378144d1f__88df6303-bbab-4aef-8fb9-2af65a484308__a8b75a33-3cb2-8e5c-90f2-4f5d5d478f01*%
X-40416997Y8062200D03*
%TO.P,,524fe574-ded1-479e-91f4-8c6378144d1f__88df6303-bbab-4aef-8fb9-2af65a484308__e7d28857-a36c-3a38-170d-dea6c395fcdc*%
X-40417003Y9612200D03*
D30*
%TO.P,,524fe574-ded1-479e-91f4-8c6378144d1f__8eda1e63-a7ed-4229-b851-6f51558a5197__a8b75a33-3cb2-8e5c-90f2-4f5d5d478f01*%
X-43117000Y11357198D03*
%TO.P,,524fe574-ded1-479e-91f4-8c6378144d1f__8eda1e63-a7ed-4229-b851-6f51558a5197__e7d28857-a36c-3a38-170d-dea6c395fcdc*%
X-44667000Y11357202D03*
D35*
%TO.P,,524fe574-ded1-479e-91f4-8c6378144d1f__a02ddfa2-4834-4bc2-b5c0-9eaf1740f978__01f9f934-68ec-8f74-1ae3-e10fbfbab168*%
X-22207000Y-5391100D03*
%TO.P,,524fe574-ded1-479e-91f4-8c6378144d1f__a02ddfa2-4834-4bc2-b5c0-9eaf1740f978__c0b736e9-ddb9-3e06-7eaa-230be2d07706*%
X-23857000Y-5391100D03*
%TO.P,,524fe574-ded1-479e-91f4-8c6378144d1f__a2b2b593-fabc-4ca5-aa6a-8e83193e7069__01f9f934-68ec-8f74-1ae3-e10fbfbab168*%
X-37467000Y-3237800D03*
%TO.P,,524fe574-ded1-479e-91f4-8c6378144d1f__a2b2b593-fabc-4ca5-aa6a-8e83193e7069__c0b736e9-ddb9-3e06-7eaa-230be2d07706*%
X-39117000Y-3237800D03*
D36*
%TO.P,,524fe574-ded1-479e-91f4-8c6378144d1f__b2fe0993-387f-4aa7-a22c-fd83ed8484ab__9664562d-87c2-5692-053d-be5c81aeb66b*%
X-44666994Y16237200D03*
%TO.P,,524fe574-ded1-479e-91f4-8c6378144d1f__b2fe0993-387f-4aa7-a22c-fd83ed8484ab__f792c80e-c0c7-f231-f886-c6da369726a3*%
X-44667006Y19537200D03*
D37*
%TO.P,,524fe574-ded1-479e-91f4-8c6378144d1f__bcc28913-75fb-43c2-a20f-4e68e20578ce__8bcc9222-380f-3a99-a68b-8f4d308a04d7*%
X-44669600Y8837200D03*
%TO.P,,524fe574-ded1-479e-91f4-8c6378144d1f__bcc28913-75fb-43c2-a20f-4e68e20578ce__d3ae7ed9-fe33-f1e5-0c50-23eaaa7d3fe1*%
X-44669600Y9787200D03*
%TO.P,,524fe574-ded1-479e-91f4-8c6378144d1f__bcc28913-75fb-43c2-a20f-4e68e20578ce__d7d3dfc1-faf8-a9e9-d346-c264727188ee*%
X-44669600Y7887200D03*
%TO.P,,524fe574-ded1-479e-91f4-8c6378144d1f__bcc28913-75fb-43c2-a20f-4e68e20578ce__de672d06-7000-18a8-89c0-26fbece953b3*%
X-41964400Y9787200D03*
%TO.P,,524fe574-ded1-479e-91f4-8c6378144d1f__bcc28913-75fb-43c2-a20f-4e68e20578ce__75cd9061-42c8-cb50-c85f-fd4ce36df4e3.mounts.cad1724461e087e24bd7b3d228d9e81c*%
X-41964400Y7887200D03*
D24*
%TO.P,,524fe574-ded1-479e-91f4-8c6378144d1f__c48d5f71-e721-4407-994a-7c81e1703caa__a8b75a33-3cb2-8e5c-90f2-4f5d5d478f01*%
X-36947000Y20487200D03*
%TO.P,,524fe574-ded1-479e-91f4-8c6378144d1f__c48d5f71-e721-4407-994a-7c81e1703caa__e7d28857-a36c-3a38-170d-dea6c395fcdc*%
X-35397000Y20487200D03*
D18*
%TO.P,,524fe574-ded1-479e-91f4-8c6378144d1f__c99994f8-e7cf-4bb7-b767-32d2ad78b4c7__01f9f934-68ec-8f74-1ae3-e10fbfbab168*%
X-40016999Y17962200D03*
%TO.P,,524fe574-ded1-479e-91f4-8c6378144d1f__c99994f8-e7cf-4bb7-b767-32d2ad78b4c7__c0b736e9-ddb9-3e06-7eaa-230be2d07706*%
X-40017001Y19612200D03*
D38*
%TO.P,,524fe574-ded1-479e-91f4-8c6378144d1f__cb45d2ce-aa53-40f6-9938-b1af24159695__a68dd819-8c4a-6b62-367f-5766cb5cb235*%
X-44667000Y14337200D03*
%TO.P,,524fe574-ded1-479e-91f4-8c6378144d1f__cb45d2ce-aa53-40f6-9938-b1af24159695__ad435139-48b7-df42-17e0-19f7e5ae314b*%
X-42767000Y14337200D03*
D30*
%TO.P,,524fe574-ded1-479e-91f4-8c6378144d1f__d7f3924d-eb4b-40fe-af01-4fd9f936a2c8__a8b75a33-3cb2-8e5c-90f2-4f5d5d478f01*%
X-43117000Y12687198D03*
%TO.P,,524fe574-ded1-479e-91f4-8c6378144d1f__d7f3924d-eb4b-40fe-af01-4fd9f936a2c8__e7d28857-a36c-3a38-170d-dea6c395fcdc*%
X-44667000Y12687202D03*
D32*
%TO.P,,524fe574-ded1-479e-91f4-8c6378144d1f__dcf896f7-b0ed-4ea2-8a51-2414e891fc10__01f9f934-68ec-8f74-1ae3-e10fbfbab168*%
X-23857000Y-6817498D03*
%TO.P,,524fe574-ded1-479e-91f4-8c6378144d1f__dcf896f7-b0ed-4ea2-8a51-2414e891fc10__c0b736e9-ddb9-3e06-7eaa-230be2d07706*%
X-22207000Y-6817502D03*
D39*
%TO.P,,524fe574-ded1-479e-91f4-8c6378144d1f__fb24be74-08f5-4fba-ba5b-8b0a9332da03__1d139908-17ed-4868-ba9d-adfc46ac3769*%
X-30871000Y-11366800D03*
%TO.P,,524fe574-ded1-479e-91f4-8c6378144d1f__fb24be74-08f5-4fba-ba5b-8b0a9332da03__61cd7f81-41a1-4e81-82d9-5ddff20318e7*%
X-30871000Y-14958800D03*
D40*
%TO.P,,524fe574-ded1-479e-91f4-8c6378144d1f__fb24be74-08f5-4fba-ba5b-8b0a9332da03__c3485a59-ddc8-4e5a-917d-8135297b3a66*%
X-34463000Y-14958800D03*
D41*
%TO.P,,524fe574-ded1-479e-91f4-8c6378144d1f__8418ba5a-2944-48f8-97d4-d57cd4bec09f*%
%TO.N,Net 12*%
X-25817000Y11137200D03*
%TO.P,,524fe574-ded1-479e-91f4-8c6378144d1f__96a43238-ec5c-451a-99c0-7ae27e42b3c9*%
X-41017000Y18787200D03*
%TO.P,,524fe574-ded1-479e-91f4-8c6378144d1f__66eee8d5-50c8-4f21-84c5-5447794f63f8*%
%TO.N,GND*%
X-33667000Y8356900D03*
%TO.P,,524fe574-ded1-479e-91f4-8c6378144d1f__d88b407d-72ea-4ebf-9e18-4bfed492c263*%
X-40417000Y6991800D03*
%TO.P,,524fe574-ded1-479e-91f4-8c6378144d1f__2d1026f7-ecc9-469a-acc3-9ec0c9b7e607*%
%TO.N,Net 5*%
X-23757000Y-3103300D03*
%TO.P,,524fe574-ded1-479e-91f4-8c6378144d1f__f988a4b5-c6a9-4fb2-a89d-44bc7d981f30*%
X-22302000Y2101200D03*
%TO.P,,524fe574-ded1-479e-91f4-8c6378144d1f__6694322d-e67f-46a3-a8ce-094305afcbff*%
%TO.N,Net 8*%
X-39116800Y4112200D03*
%TO.P,,524fe574-ded1-479e-91f4-8c6378144d1f__8949a3f1-c3e2-4b4a-9bdd-3c0b4f96625f*%
X-31576800Y16862000D03*
%TO.P,,524fe574-ded1-479e-91f4-8c6378144d1f__095aaf2a-ac69-4e2a-a57c-f1480694a4b3*%
%TO.N,Net 9*%
X-22761300Y22187200D03*
%TO.P,,524fe574-ded1-479e-91f4-8c6378144d1f__7b95a83a-3899-435a-93de-3ca94212db24*%
X-39116800Y-47200D03*
%TO.P,,524fe574-ded1-479e-91f4-8c6378144d1f__6e814479-ab0b-4583-a810-1943c6add213*%
%TO.N,Net 18*%
X-31767000Y1793700D03*
%TO.P,,524fe574-ded1-479e-91f4-8c6378144d1f__c3652db3-ed27-45fc-8d00-e181c5b1b64e*%
X-20717000Y13687200D03*
%TO.P,,524fe574-ded1-479e-91f4-8c6378144d1f__2893af39-1b26-4cb1-a204-eb958448f1e6*%
%TO.N,Net 15*%
X-20717000Y11987200D03*
%TO.P,,524fe574-ded1-479e-91f4-8c6378144d1f__8bdab6be-c8ab-4f3d-bcf9-bbde913a940f*%
X-34417000Y-47200D03*
%TO.P,,524fe574-ded1-479e-91f4-8c6378144d1f__0c994fcb-406a-43c4-98de-33d9d18c1228*%
%TO.N,Net 23*%
X-25017000Y12837200D03*
%TO.P,,524fe574-ded1-479e-91f4-8c6378144d1f__7103baed-1c25-4b05-95ca-655169e19011*%
X-41517000Y22950200D03*
%TO.P,,524fe574-ded1-479e-91f4-8c6378144d1f__03fa7498-67ac-463d-922e-cb035f71abf9*%
%TO.N,Net 14*%
X-33092100Y-47200D03*
%TO.P,,524fe574-ded1-479e-91f4-8c6378144d1f__4d594802-45be-4274-851f-08c41d5f9dd5*%
X-20717000Y12837200D03*
D42*
%TO.P,,524fe574-ded1-479e-91f4-8c6378144d1f__126403d9-050c-4d5d-9847-9f38b3108224*%
%TO.N,N/C*%
X-44167000Y-17162800D03*
%TO.P,,524fe574-ded1-479e-91f4-8c6378144d1f__cfc146b8-363b-4055-862c-2d248574f881*%
X-21167000Y-17162800D03*
D43*
%TO.P,,bf4d72c7-13e7-4e3e-8cef-7c25da4dd21a__271d22f8-215a-0948-4546-fd550ad8229e*%
X7429200Y-10609900D03*
D44*
%TO.P,,bf4d72c7-13e7-4e3e-8cef-7c25da4dd21a__5305335a-9f51-0d58-7e7f-f55550fcb3ba*%
X7429200Y-5529900D03*
D43*
%TO.P,,bf4d72c7-13e7-4e3e-8cef-7c25da4dd21a__68679347-14c6-b131-5eb9-5ada6c4cbf42*%
X7429200Y-13149900D03*
%TO.P,,bf4d72c7-13e7-4e3e-8cef-7c25da4dd21a__efca75aa-0d88-8f16-c584-5195d8301ba5*%
X7429200Y-8069900D03*
D45*
%TO.P,,9c95b831-916d-496f-ace5-6ea6c91dd12e__f4a0c8aa-c0dd-4907-b71a-88e950c39149*%
X19273800Y-15605000D03*
%TO.P,,9c95b831-916d-496f-ace5-6ea6c91dd12e__b07d8f8e-2340-42e7-906e-bb789d71a117*%
X11653800Y-15605000D03*
%TO.P,,9c95b831-916d-496f-ace5-6ea6c91dd12e__9e85e25b-ae4e-4fe4-941b-184b15b09b4f*%
X16733800Y-15605000D03*
%TO.P,,9c95b831-916d-496f-ace5-6ea6c91dd12e__2ac23be2-424a-46dd-bfbb-c099e8e28d6d*%
X14193800Y-15605000D03*
%TD*%
D46*
%TO.N,Net 12*%
X-41017000Y19637200D02*
X-41017000Y18787200D01*
X-42017000Y20637200D02*
X-41017000Y19637200D01*
X-42017000Y21742200D02*
X-42017000Y20637200D01*
X-25817000Y11137200D02*
X-25817000Y9237200D01*
X-41017000Y19637200D02*
X-41016800Y19637400D01*
X-41017000Y21742200D02*
X-41017000Y19637200D01*
%TO.N,GND*%
X-33667000Y9237200D02*
X-33667000Y8356800D01*
X-40417000Y8062200D02*
X-40417000Y6991800D01*
%TO.N,Net 5*%
X-23757000Y-3987800D02*
X-23757000Y-3103200D01*
X-22302000Y2101200D02*
X-22302000Y3512200D01*
X-23857000Y-5391100D02*
X-23857000Y-4087700D01*
X-18660900Y10895800D02*
X-18902300Y11137200D01*
X-22302000Y4870300D02*
X-18660800Y8511500D01*
X-23857000Y-4087800D02*
X-23757000Y-3987800D01*
X-22302000Y3903100D02*
X-22302000Y3512100D01*
X-18902400Y11137200D02*
X-19667000Y11137200D01*
X-22302000Y3512200D02*
X-22302000Y4870400D01*
X-18660900Y8511500D02*
X-18660900Y10895700D01*
%TO.N,Net 13*%
X-31767000Y3637200D02*
X-32242000Y4112200D01*
X-31767000Y2512200D02*
X-31767000Y3637200D01*
%TO.N,Net 8*%
X-32182400Y19637200D02*
X-33667000Y19637200D01*
X-31576800Y16862000D02*
X-31576800Y19031600D01*
X-39117000Y2262200D02*
X-39116800Y4112200D01*
X-41067000Y2262200D02*
X-39117000Y2262200D01*
X-45567000Y2262200D02*
X-41067000Y2262200D01*
X-39117000Y2262200D02*
X-39116800Y2262400D01*
X-31576800Y19031600D02*
X-32182400Y19637200D01*
%TO.N,Net 24*%
X-40017000Y21742200D02*
X-40016800Y21742400D01*
X-40017000Y19612200D02*
X-40017000Y21742200D01*
%TO.N,Net 4*%
X-23757000Y-6917500D02*
X-23857000Y-6817500D01*
X-23757000Y-8210000D02*
X-23757000Y-6917400D01*
%TO.N,Net 9*%
X-39117000Y-1087800D02*
X-39116800Y-47200D01*
X-39117000Y-3237800D02*
X-39117000Y-1087800D01*
X-45567000Y-3237800D02*
X-41067000Y-3237800D01*
X-39117000Y-1087800D02*
X-39116800Y-1087600D01*
X-41067000Y-3237800D02*
X-39117000Y-3237800D01*
X-22761400Y22187200D02*
X-19667000Y22187200D01*
%TO.N,Net 2*%
X-20937000Y-5391100D02*
X-20937000Y-3987700D01*
X-20937000Y-3987800D02*
X-21032000Y-3892800D01*
X-20936800Y-3988000D02*
X-20937000Y-3987800D01*
X-20936800Y-5177200D02*
X-20936800Y-3988000D01*
X-27011800Y-14958800D02*
X-20937000Y-8884000D01*
X-21032000Y-3892800D02*
X-21032000Y-1437800D01*
X-20937000Y-8883900D02*
X-20937000Y-5391100D01*
X-20937000Y-3987800D02*
X-20936800Y-3987600D01*
X-30871000Y-14958800D02*
X-27011800Y-14958800D01*
%TO.N,Net 3*%
X-22207000Y-3987900D02*
X-22207000Y-5391100D01*
X-22207000Y-1532800D02*
X-22302000Y-1437800D01*
X-22207000Y-3987800D02*
X-22207000Y-1532800D01*
X-22207000Y-5391100D02*
X-22207000Y-6817500D01*
X-22207000Y-6817500D02*
X-22206800Y-6817300D01*
D47*
%TO.N,Net 1*%
X-32242000Y5562100D02*
X-32242000Y7161900D01*
X-33872000Y7161900D02*
X-35397000Y7161900D01*
X-37467000Y-3237800D02*
X-35397000Y-3237800D01*
X-35397000Y8672400D02*
X-35397000Y7161900D01*
D48*
X-33667000Y20487200D02*
X-35397000Y20487200D01*
D47*
X-35397000Y18787200D02*
X-35397000Y9612200D01*
X-35397000Y20487200D02*
X-35397000Y18787200D01*
X-24304000Y7161900D02*
X-32242000Y7161900D01*
X-35397000Y9612200D02*
X-35397000Y8672400D01*
X-41964400Y9787200D02*
X-40592000Y9787200D01*
X-40592000Y9787200D02*
X-40417000Y9612200D01*
X-24304000Y7161900D02*
X-23572000Y6429900D01*
X-35572000Y9787200D02*
X-35397000Y9612200D01*
X-35397000Y8687000D02*
X-35397000Y8672400D01*
X-34463000Y-14958800D02*
X-35397000Y-14024800D01*
D46*
X-40417000Y9787200D02*
X-40417000Y9612200D01*
X-40417000Y9612200D02*
X-40416800Y9612400D01*
D47*
X-35397000Y-14024800D02*
X-35397000Y-3237800D01*
X-41964400Y9787200D02*
X-35572000Y9787200D01*
X-23572000Y6429800D02*
X-23572000Y3512200D01*
X-33872000Y7161900D02*
X-32242000Y7161900D01*
X-35397000Y-3237800D02*
X-35397000Y7161900D01*
D46*
%TO.N,Net 19*%
X-43017000Y19962200D02*
X-43017000Y21742200D01*
X-42667000Y19612200D02*
X-43017000Y19962200D01*
%TO.N,Net 17*%
X-33092000Y4112200D02*
X-33091800Y4112400D01*
X-33092000Y2512200D02*
X-33092000Y4112200D01*
%TO.N,Net 18*%
X-31767000Y862200D02*
X-31767000Y1793800D01*
X-20717000Y13687200D02*
X-19667000Y13687200D01*
%TO.N,Net 15*%
X-34417000Y862200D02*
X-34417000Y-47200D01*
X-20717000Y11987200D02*
X-19667000Y11987200D01*
D47*
%TO.N,Net 6*%
X-44667000Y12687200D02*
X-44666600Y12687600D01*
X-44669600Y9787200D02*
X-44669600Y11354600D01*
X-44667000Y14337200D02*
X-44666600Y14337600D01*
D48*
X-44827600Y11196600D02*
X-44667000Y11357200D01*
X-45792200Y10826900D02*
X-45422600Y11196500D01*
X-45457400Y7887200D02*
X-45792200Y8222000D01*
D47*
X-44667000Y16237200D02*
X-44667000Y14337200D01*
D46*
X-44666600Y11196600D02*
X-44666600Y11356800D01*
X-44666600Y11356800D02*
X-44667000Y11357200D01*
D48*
X-44669600Y7887200D02*
X-45457400Y7887200D01*
X-45792200Y8222000D02*
X-45792200Y10827000D01*
D47*
X-44667000Y12687200D02*
X-44667000Y11357200D01*
X-44669600Y11354600D02*
X-44667000Y11357200D01*
D48*
X-45422700Y11196500D02*
X-44827700Y11196500D01*
D47*
X-44667000Y14337200D02*
X-44667000Y12687200D01*
D46*
%TO.N,Net 16*%
X-34417000Y2512200D02*
X-34417000Y5017000D01*
X-34417000Y5017100D02*
X-33872000Y5562100D01*
X-33092100Y5562100D02*
X-33091900Y5562300D01*
X-33872000Y5562100D02*
X-33092000Y5562100D01*
%TO.N,Net 23*%
X-40517000Y21742200D02*
X-40517000Y22657200D01*
X-26667000Y11987200D02*
X-26667000Y9237200D01*
X-25017000Y12837200D02*
X-25817000Y12837200D01*
X-40517000Y22657200D02*
X-40810000Y22950200D01*
X-41517000Y21742200D02*
X-41517000Y22853600D01*
X-25817000Y12837200D02*
X-26667000Y11987200D01*
X-40810000Y22950200D02*
X-41517000Y22950200D01*
X-41517000Y22853600D02*
X-41517000Y22950200D01*
D47*
%TO.N,Net 21*%
X-42353600Y23720900D02*
X-42483300Y23720900D01*
X-43717000Y21742200D02*
X-43717000Y22487200D01*
X-40050800Y23721000D02*
X-42353700Y23721000D01*
X-43717000Y22487200D02*
X-42483300Y23720900D01*
X-43717000Y20487200D02*
X-43717000Y21742200D01*
X-38817000Y22487200D02*
X-40050800Y23721000D01*
X-44667000Y19537200D02*
X-43717000Y20487200D01*
X-38817000Y21742200D02*
X-38817000Y22487200D01*
D46*
%TO.N,Net 14*%
X-20717000Y12837200D02*
X-19667000Y12837200D01*
X-33091900Y862200D02*
X-33092100Y-47200D01*
%TD*%
M02*
