M48
; DRILL file {KiCad 7.0.11-7.0.11~ubuntu20.04.1} date Mon Apr  8 19:48:30 2024
; FORMAT={-:-/ absolute / metric / decimal}
; #@! TF.CreationDate,2024-04-08T19:48:30+00:00
; #@! TF.GenerationSoftware,Kicad,Pcbnew,7.0.11-7.0.11~ubuntu20.04.1
; #@! TF.FileFunction,MixedPlating,1,4
FMAT,2
METRIC
; #@! TA.AperFunction,Plated,PTH,ComponentDrill
T1C0.300
; #@! TA.AperFunction,Plated,PTH,ComponentDrill
T2C0.650
; #@! TA.AperFunction,Plated,PTH,ComponentDrill
T3C0.700
; #@! TA.AperFunction,Plated,PTH,ComponentDrill
T4C0.889
; #@! TA.AperFunction,Plated,PTH,ComponentDrill
T5C1.000
; #@! TA.AperFunction,Plated,PTH,ComponentDrill
T6C1.020
; #@! TA.AperFunction,Plated,PTH,ComponentDrill
T7C2.500
; #@! TA.AperFunction,NonPlated,NPTH,ComponentDrill
T8C3.000
%
G90
G05
T1
X-41.517Y22.95
X-41.017Y18.787
X-40.417Y6.992
X-39.117Y4.112
X-39.117Y-0.047
X-34.417Y-0.047
X-33.667Y8.357
X-33.092Y-0.047
X-31.767Y1.794
X-31.577Y16.862
X-25.817Y11.137
X-25.017Y12.837
X-23.757Y-3.103
X-22.761Y22.187
X-22.302Y2.101
X-20.717Y13.687
X-20.717Y12.837
X-20.717Y11.987
T3
X-44.157Y23.187
X-38.377Y23.187
X-34.463Y-14.959
X-30.871Y-11.367
X-30.871Y-14.959
T4
X7.429Y-5.53
X7.429Y-8.07
X7.429Y-10.61
X7.429Y-13.15
T5
X-17.223Y9.465
X-15.832Y12.825
X-15.832Y6.105
X-9.112Y12.825
X-9.112Y6.105
X-7.722Y9.465
X11.654Y-15.605
X14.194Y-15.605
X16.734Y-15.605
X19.274Y-15.605
T6
X-17.507Y30.979
X-17.507Y28.439
X-17.507Y25.899
X-17.507Y23.359
X-17.507Y20.819
X-17.507Y18.279
X-17.507Y15.739
X-17.507Y13.199
X-17.507Y10.659
X-17.507Y8.119
X-17.507Y5.579
X-17.507Y3.039
X-17.507Y0.499
X-17.507Y-2.041
X-17.507Y-4.581
X6.934Y6.325
X7.893Y30.979
X7.893Y28.439
X7.893Y25.899
X7.893Y23.359
X7.893Y20.819
X7.893Y18.279
X7.893Y15.739
X7.893Y13.199
X7.893Y10.659
X7.893Y8.119
X7.893Y5.579
X7.893Y3.039
X7.893Y0.499
X7.893Y-2.041
X7.893Y-4.581
X9.474Y6.325
X12.014Y6.325
X14.554Y6.325
T7
X-44.167Y-17.163
X-21.167Y-17.163
T8
X-17.087Y38.939
X-17.087Y-8.011
X7.423Y38.939
X7.423Y-8.011
T2
G00X-45.587Y22.357
M15
G01X-45.587Y22.957
M16
G05
G00X-45.587Y26.537
M15
G01X-45.587Y27.137
M16
G05
G00X-36.947Y22.357
M15
G01X-36.947Y22.957
M16
G05
G00X-36.947Y26.537
M15
G01X-36.947Y27.137
M16
G05
M30
